<svg width="1440" height="184" viewBox="0 0 1440 184" fill="none" xmlns="http://www.w3.org/2000/svg">
<g clip-path="url(#clip0_859_3950)">
<rect width="1440" height="184" fill="#FFEFE4"/>
<rect width="200" height="184" transform="matrix(-1 0 0 1 1472 0)" fill="#D29B4A"/>
<path d="M1272 184C1272 159.837 1277.17 135.91 1287.22 113.586C1297.28 91.2623 1312.01 70.9783 1330.58 53.8923C1349.15 36.8064 1371.2 23.253 1395.46 14.0062C1419.73 4.7593 1445.74 -1.05621e-06 1472 0L1472 184L1272 184Z" fill="#C75614"/>
<rect x="1273" y="184" width="200" height="184" transform="rotate(-180 1273 184)" fill="#D29B4A"/>
<rect x="1273" y="86" width="200" height="86" transform="rotate(-180 1273 86)" fill="#2E1501"/>
<path d="M1173 173.881C1117.77 173.881 1073 132.691 1073 81.8809L1273 81.8809C1273 132.691 1228.23 173.881 1173 173.881Z" fill="#2E1501"/>
<rect width="200" height="184" transform="matrix(1 0 0 -1 0 184)" fill="#D29B4A"/>
<path d="M200 0C200 24.1632 194.827 48.0898 184.776 70.4137C174.725 92.7377 159.993 113.022 141.421 130.108C122.85 147.194 100.802 160.747 76.5367 169.994C52.2716 179.241 26.2644 184 0 184L1.52588e-05 0H200Z" fill="#C75614"/>
<rect x="199" width="200" height="184" fill="#D29B4A"/>
<rect x="199" y="98" width="200" height="86" fill="#2E1501"/>
<path d="M299 10.1191C354.228 10.1191 399 51.3089 399 102.119L199 102.119C199 51.3089 243.772 10.1191 299 10.1191Z" fill="#2E1501"/>
</g>
<defs>
<clipPath id="clip0_859_3950">
<rect width="1440" height="184" fill="white"/>
</clipPath>
</defs>
</svg>
